HIERARCHY
ROOT Hips
{
	OFFSET 55.310501 45.591206 43.872097
	CHANNELS 6 Xposition Yposition Zposition Zrotation Xrotation Yrotation
	JOINT Chest
	{
		OFFSET -0.153500 1.163101 7.852402
		CHANNELS 6 Xposition Yposition Zposition Zrotation Xrotation Yrotation
		JOINT Chest2
		{
			OFFSET 0.000000 0.000000 3.343300
			CHANNELS 6 Xposition Yposition Zposition Zrotation Xrotation Yrotation
			JOINT Neck
			{
				OFFSET 0.000000 0.000000 7.785500
				CHANNELS 6 Xposition Yposition Zposition Zrotation Xrotation Yrotation
				JOINT Head
				{
					OFFSET 0.000000 0.000000 2.173901
					CHANNELS 6 Xposition Yposition Zposition Zrotation Xrotation Yrotation
					End Site
					{
						OFFSET 0.000000 0.000000 10.528198
					}
				}
			}
			JOINT LeftCollar
			{
				OFFSET 2.676300 -1.652401 4.938301
				CHANNELS 6 Xposition Yposition Zposition Zrotation Xrotation Yrotation
				JOINT LeftShoulder
				{
					OFFSET 4.299000 0.000000 0.000000
					CHANNELS 6 Xposition Yposition Zposition Zrotation Xrotation Yrotation
					JOINT LeftElbow
					{
						OFFSET 0.000000 0.000000 -10.245102
						CHANNELS 6 Xposition Yposition Zposition Zrotation Xrotation Yrotation
						JOINT LeftWrist
						{
							OFFSET 0.000000 0.000000 -12.703300
							CHANNELS 6 Xposition Yposition Zposition Zrotation Xrotation Yrotation
							End Site
							{
								OFFSET 0.000000 0.000000 -2.173901
							}
						}
					}
				}
			}
			JOINT RightCollar
			{
				OFFSET -2.534599 -1.686401 5.195000
				CHANNELS 6 Xposition Yposition Zposition Zrotation Xrotation Yrotation
				JOINT RightShoulder
				{
					OFFSET -4.144100 0.000000 0.000000
					CHANNELS 6 Xposition Yposition Zposition Zrotation Xrotation Yrotation
					JOINT RightElbow
					{
						OFFSET 0.000000 0.000000 -10.116501
						CHANNELS 6 Xposition Yposition Zposition Zrotation Xrotation Yrotation
						JOINT RightWrist
						{
							OFFSET 0.000000 0.000000 -12.937801
							CHANNELS 6 Xposition Yposition Zposition Zrotation Xrotation Yrotation
							End Site
							{
								OFFSET 0.000000 0.000000 -2.173901
							}
						}
					}
				}
			}
		}
	}
	JOINT LeftHip
	{
		OFFSET 2.175598 0.064499 -2.662899
		CHANNELS 6 Xposition Yposition Zposition Zrotation Xrotation Yrotation
		JOINT LeftKnee
		{
			OFFSET 0.000000 -0.000004 -18.585800
			CHANNELS 6 Xposition Yposition Zposition Zrotation Xrotation Yrotation
			JOINT LeftAnkle
			{
				OFFSET 0.000000 0.000000 -18.979500
				CHANNELS 6 Xposition Yposition Zposition Zrotation Xrotation Yrotation
				End Site
				{
					OFFSET 0.000000 -9.264000 0.000000
				}
			}
		}
	}
	JOINT RightHip
	{
		OFFSET -2.092400 -0.058102 -2.581200
		CHANNELS 6 Xposition Yposition Zposition Zrotation Xrotation Yrotation
		JOINT RightKnee
		{
			OFFSET 0.000000 -0.000004 -18.665001
			CHANNELS 6 Xposition Yposition Zposition Zrotation Xrotation Yrotation
			JOINT RightAnkle
			{
				OFFSET 0.000000 0.000000 -18.566601
				CHANNELS 6 Xposition Yposition Zposition Zrotation Xrotation Yrotation
				End Site
				{
					OFFSET 0.000000 -8.497601 0.000000
				}
			}
		}
	}
}
MOTION
Frames: 4
Frame Time: 0.041667
81.730606 20.411610 20.992790 1497.562252 48.979737 -31.274241 -0.153499 1.163102 7.852404 31.883193 0.683962 2.619715 0.000006 0.000002 3.343309 -2.002525 -10.276335 0.075434 -0.000008 -0.000015 7.785501 -52.887309 -19.926978 10.556162 0.000003 0.000007 2.173903 -6.958683 -6.761691 -17.154271 2.676290 -1.652407 4.938302 11.234684 1.041036 -4.341669 4.298991 0.000003 0.000000 10.641245 21.251958 -93.055563 -0.000004 0.000000 -10.245097 5.033617 725.401935 -1.483072 -0.000001 0.000017 -12.703309 1588.915212 -179.680120 524.131013 -2.534608 -1.686407 5.194999 9.213433 9.543043 -12.813351 -4.144094 0.000012 -0.000008 1.120810 3.770225 117.563825 -0.000006 0.000005 -10.116493 -45.057279 -2.949494 -5.073228 0.000009 0.000011 -12.937806 -363.672739 -361.339219 4.353718 2.175608 0.064495 -2.662892 -571.611538 1.042343 113.549457 -0.000008 -0.000009 -18.585810 41.490650 -189.605013 -59.717184 0.000002 -0.000003 -18.979513 773.988786 4.636872 -124.083760 -2.092387 -0.058101 -2.581205 878.016665 45.530990 -76.719943 0.000008 0.000003 -18.665020 -1409.097204 7.119270 7.449451 0.000002 0.000005 -18.566612 519.954653 41.624897 -64.644967
81.730499 20.422810 20.981199 1497.615363 48.961258 -31.311653 -0.153501 1.163109 7.852405 31.847082 0.670013 2.559617 -0.000002 -0.000001 3.343297 -2.024911 -10.178644 0.072714 0.000004 0.000002 7.785507 -52.752737 -20.004094 10.512973 0.000002 0.000004 2.173904 -7.062999 -6.765067 -17.190708 2.676299 -1.652399 4.938298 11.193193 1.010532 -4.408687 4.299003 0.000004 -0.000002 10.591708 21.387016 -92.829122 -0.000006 0.000011 -10.245107 4.771405 725.477121 -1.494997 0.000008 -0.000002 -12.703306 1589.340870 -179.720118 524.162104 -2.534590 -1.686397 5.195004 9.123122 9.528186 -12.316046 -4.144101 0.000003 0.000010 1.300210 3.702743 117.123524 0.000003 0.000007 -10.116497 -45.055650 -2.953624 -5.048880 0.000003 0.000006 -12.937796 -363.631867 -361.377577 4.306199 2.175589 0.064505 -2.662899 -571.615308 1.022054 113.564340 -0.000005 -0.000011 -18.585791 41.507527 -189.721140 -59.652065 0.000010 -0.000006 -18.979511 773.850816 4.654047 -124.114728 -2.092398 -0.058097 -2.581199 878.063875 45.417787 -76.777849 0.000008 -0.000004 -18.664997 -1409.277958 7.062592 7.443782 0.000012 0.000001 -18.566607 520.032135 41.595210 -64.672828
81.729904 20.432505 20.971794 1497.640717 48.949941 -31.316540 -0.153506 1.163100 7.852398 31.841003 0.670307 2.483077 -0.000003 -0.000003 3.343295 -2.047914 -10.117420 0.071080 0.000008 -0.000001 7.785498 -52.637556 -20.062294 10.491672 -0.000005 0.000003 2.173899 -7.115910 -6.754154 -17.238363 2.676300 -1.652392 4.938300 11.136967 1.013182 -4.342091 4.299006 -0.000004 -0.000003 10.562722 21.488735 -92.718042 -0.000003 -0.000004 -10.245104 4.452804 725.606239 -1.540482 -0.000001 0.000006 -12.703301 1589.822480 -179.740991 524.219532 -2.534600 -1.686400 5.194998 9.065350 9.511982 -12.016744 -4.144101 0.000008 -0.000002 1.421773 3.631569 116.882404 0.000004 -0.000016 -10.116496 -45.008822 -2.959696 -5.026783 0.000003 0.000010 -12.937805 -363.622114 -361.413367 4.245762 2.175592 0.064498 -2.662899 -571.589899 1.008216 113.571914 0.000002 -0.000001 -18.585800 41.532908 -189.804373 -59.598626 -0.000004 -0.000003 -18.979517 773.733610 4.676770 -124.162621 -2.092394 -0.058102 -2.581210 878.100267 45.327837 -76.808428 0.000003 -0.000004 -18.664989 -1409.415218 7.019794 7.439082 0.000011 0.000002 -18.566614 520.100655 41.574672 -64.698134
81.730202 20.443506 20.962706 1497.627056 48.948127 -31.313030 -0.153488 1.163109 7.852406 31.865817 0.705629 2.424534 0.000004 0.000002 3.343300 -2.067199 -10.093010 0.069969 -0.000010 0.000002 7.785501 -52.602302 -20.104226 10.514495 -0.000004 0.000004 2.173901 -7.096558 -6.749132 -17.283036 2.676297 -1.652404 4.938293 11.087837 1.012001 -4.247315 4.298999 -0.000001 -0.000002 10.547011 21.551994 -92.666829 -0.000000 -0.000006 -10.245098 4.208194 725.680279 -1.567772 0.000002 0.000001 -12.703306 1590.171311 -179.761017 524.282206 -2.534602 -1.686405 5.194995 9.002682 9.462804 -11.862746 -4.144096 0.000003 -0.000007 1.505334 3.609466 116.790853 0.000001 -0.000005 -10.116501 -44.944328 -2.967575 -5.016393 0.000004 -0.000003 -12.937799 -363.639954 -361.437628 4.185318 2.175608 0.064505 -2.662893 -571.528482 1.039417 113.547763 -0.000007 -0.000019 -18.585812 41.565171 -189.818921 -59.557187 -0.000004 0.000002 -18.979519 773.671592 4.711626 -124.224967 -2.092386 -0.058095 -2.581197 878.137368 45.310929 -76.838283 0.000010 -0.000003 -18.665007 -1409.503409 6.994824 7.420492 0.000006 -0.000002 -18.566612 520.213380 41.559604 -64.750487
